<svg width="24" height="25" viewBox="0 0 24 25" fill="none" xmlns="http://www.w3.org/2000/svg">
<path d="M21 12.05V19.05C21 19.5804 20.7893 20.0891 20.4142 20.4642C20.0391 20.8393 19.5304 21.05 19 21.05H5C4.46957 21.05 3.96086 20.8393 3.58579 20.4642C3.21071 20.0891 3 19.5804 3 19.05V12.05H21ZM16 3.04999C16.2652 3.04999 16.5196 3.15534 16.7071 3.34288C16.8946 3.53042 17 3.78477 17 4.04999V5.04999H19C19.5304 5.04999 20.0391 5.2607 20.4142 5.63577C20.7893 6.01085 21 6.51955 21 7.04999V10.05H3V7.04999C3 6.51955 3.21071 6.01085 3.58579 5.63577C3.96086 5.2607 4.46957 5.04999 5 5.04999H7V4.04999C7 3.78477 7.10536 3.53042 7.29289 3.34288C7.48043 3.15534 7.73478 3.04999 8 3.04999C8.26522 3.04999 8.51957 3.15534 8.70711 3.34288C8.89464 3.53042 9 3.78477 9 4.04999V5.04999H15V4.04999C15 3.78477 15.1054 3.53042 15.2929 3.34288C15.4804 3.15534 15.7348 3.04999 16 3.04999Z" fill="#5F83ED"/>
</svg>
